<?xml version="1.0" encoding="utf-8"?>
<!-- Generator: $$$/GeneralStr/196=Adobe Illustrator 27.6.0, SVG Export Plug-In . SVG Version: 6.00 Build 0)  -->
<svg version="1.1" id="Ebene_1" xmlns="http://www.w3.org/2000/svg" xmlns:xlink="http://www.w3.org/1999/xlink" x="0px" y="0px"
	 viewBox="0 0 141.4 117.7" style="enable-background:new 0 0 141.4 117.7;" xml:space="preserve">
<style type="text/css">
	.st0{fill:#FFFFFF;}
	.st1{fill:none;}
	.st2{fill:#0072B6;}
	.st3{fill:#93C01F;}
	.st4{fill:#0072B5;}
</style>
<g id="Gruppe_1573_00000036225406889633645740000005638485988065274764_" transform="translate(11.999 11.338)">
	<path id="Pfad_353_00000113318744660375690570000008344342737214566073_" class="st0" d="M-7,31.1C4.4,3.7,35.9-9.4,63.3,2
		s40.5,42.9,29.1,70.4S49.5,112.9,22,101.5C-5.4,90.1-18.4,58.6-7,31.1C-7,31.2-7,31.2-7,31.1"/>
	<path id="Pfad_354_00000077319739550975172810000003684892606733457081_" class="st0" d="M23,23.2C34.5-4.5,66.3-17.7,94-6.2
		s40.9,43.3,29.4,71s-43.3,40.9-71,29.4l0,0C24.7,82.8,11.5,51,23,23.2"/>
</g>
<rect x="18.3" y="16.9" class="st1" width="244" height="106.8"/>
<g id="Gruppe_1573" transform="translate(11.999 11.338)">
	<path id="Pfad_353" class="st2" d="M-1.9,32.4C8.6,7.1,37.6-4.9,62.9,5.6s37.3,39.5,26.8,64.8C79.3,95.7,50.3,107.7,25,97.3
		C-0.3,86.8-12.4,57.8-1.9,32.4C-1.9,32.5-1.9,32.4-1.9,32.4"/>
	<path id="Pfad_354" class="st3" d="M25.8,25.2C36.3-0.4,65.6-12.5,91.2-1.9s37.7,39.9,27.1,65.4s-39.9,37.7-65.4,27.1l0,0
		C27.3,80,15.2,50.7,25.8,25.2"/>
	<path id="Pfad_355" class="st0" d="M27.6,79.9l1.1,1.1c4.3,4.3,9,7.9,9.7,5.8c0.3-0.9-0.3-1.8-1.3-3.4c-2.7-4.2-3.1-6-1.9-7.2
		c0.4-0.4,1.1-1.1,1.1-1.1c6.5,6,14.9,9.5,23.8,9.9c0,0,0,1,0,1.6c0,1.7-1.5,2.6-6.4,3.7c-1.8,0.4-2.9,0.6-3.3,1.5
		c-1,2,4.9,2.7,10.9,2.7l0,0h1.5c6.1,0,12-0.7,11-2.7c-0.4-0.8-1.5-1.1-3.3-1.5c-4.9-1.1-6.4-2-6.4-3.7c0-0.6,0-1.5,0-1.5
		c8.9-0.4,17.3-3.9,23.8-9.9c0,0,0.6,0.7,1.1,1.1c1.2,1.2,0.8,3-1.9,7.2c-1,1.5-1.6,2.5-1.3,3.4c0.7,2.1,5.4-1.5,9.7-5.8l0,0
		l1.1-1.1c4.3-4.3,7.9-9,5.8-9.7c-0.9-0.3-1.8,0.3-3.4,1.3c-4.2,2.7-6,3.1-7.2,1.9c-0.4-0.4-1.1-1.1-1.1-1.1
		c6.1-6.5,9.6-14.9,9.9-23.8c0,0,0.9-0.1,1.6-0.1c1.7,0,2.6,1.5,3.7,6.4c0.4,1.8,0.6,2.9,1.5,3.3c2,1,2.7-4.9,2.7-11v-1.5l0,0
		c0-6.1-0.7-11.9-2.7-10.9c-0.8,0.4-1.1,1.5-1.5,3.3c-1.1,4.9-2,6.4-3.7,6.4c-0.6,0-1.6,0-1.6,0c-0.3-8.9-3.8-17.3-9.9-23.8
		c0,0,0.7-0.7,1.1-1.1c1.2-1.2,3-0.8,7.2,1.9c1.5,1,2.5,1.6,3.4,1.3c2.1-0.7-1.5-5.4-5.8-9.7L95.5,12l0,0c-4.3-4.3-8.9-7.9-9.7-5.8
		c-0.3,0.9,0.3,1.8,1.3,3.4c2.7,4.2,3.1,6,1.9,7.2c-0.4,0.4-1.1,1.1-1.1,1.1c-6.5-6-15-9.5-23.9-9.8c0,0,0-1,0-1.6
		c0-1.7,1.5-2.6,6.4-3.7c1.8-0.4,2.9-0.6,3.3-1.5c1-2-4.9-2.7-11-2.7h-1.5l0,0c-6.1,0-11.9,0.7-10.9,2.7c0.4,0.8,1.5,1.1,3.3,1.5
		c4.9,1.1,6.4,2,6.4,3.7C60,7,60,8,60,8c-8.9,0.3-17.3,3.8-23.8,9.8c0,0-0.6-0.6-1.1-1c-1.2-1.2-0.8-2.9,1.9-7.2
		c1-1.5,1.6-2.5,1.3-3.4c-0.7-2.1-5.4,1.5-9.7,5.8l-1.1,1.1l0,0c-4.3,4.3-7.9,8.9-5.8,9.7c0.9,0.3,1.8-0.3,3.4-1.3
		c4.2-2.7,6-3.1,7.2-1.9c0.4,0.4,1.1,1.1,1.1,1.1c-6,6.5-9.5,15-9.8,23.8c0,0-1.1,0-1.5,0c-1.7,0-2.6-1.5-3.7-6.4
		c-0.4-1.8-0.6-2.9-1.5-3.3c-2-1-2.7,4.9-2.7,10.9l0,0v1.5c0,6.1,0.7,12,2.7,11c0.8-0.4,1.1-1.5,1.5-3.3c1.1-4.9,2-6.4,3.7-6.4
		c0.6,0,1.5,0,1.5,0c0.4,8.8,3.9,17.2,9.9,23.7c0,0-0.7,0.7-1.1,1.1c-1.2,1.2-3,0.8-7.2-1.9c-1.5-1-2.5-1.6-3.4-1.3
		C19.7,70.9,23.3,75.6,27.6,79.9L27.6,79.9z"/>
	<path id="Pfad_356" class="st4" d="M84.5,59.6L94,33.4h-5.9l-5.6,16.7c-0.1,0.3-0.2,0.7-0.3,1.1c-0.1,0.4-0.2,0.8-0.3,1.1
		s-0.2,0.7-0.3,1h-0.2c-0.1-0.3-0.2-0.6-0.3-1c-0.1-0.4-0.3-0.8-0.4-1.2s-0.2-0.7-0.3-1l-5.6-16.7h-6.1l9.5,26.2H84.5z M62.8,33.4
		h-5.7v26.2h5.7V33.4z M50.4,59.6v-4.8H37.2V33.4h-5.7v26.2C31.5,59.6,50.4,59.6,50.4,59.6z"/>
</g>
</svg>
